<svg width="34" height="45" viewBox="0 0 34 45" fill="none" xmlns="http://www.w3.org/2000/svg">
<path d="M0.52983 22.6136V20.0568C2.45028 20.0568 3.79119 19.6648 4.55256 18.8807C5.31392 18.0852 5.6946 16.7727 5.6946 14.9432V10.0511C5.6946 8.3125 5.88778 6.85227 6.27415 5.67045C6.67188 4.47727 7.27415 3.52273 8.08097 2.80682C8.88778 2.09091 9.91051 1.57386 11.1491 1.25568C12.3878 0.937499 13.848 0.778408 15.5298 0.778408V4.81818C14.2116 4.81818 13.1832 5.01136 12.4446 5.39773C11.706 5.78409 11.1889 6.38636 10.8935 7.20455C10.6094 8.01136 10.4673 9.04545 10.4673 10.3068V16.5114C10.4673 17.3864 10.3366 18.1989 10.0753 18.9489C9.81392 19.6875 9.33097 20.3295 8.62642 20.875C7.92188 21.4205 6.91619 21.8466 5.60938 22.1534C4.30256 22.4602 2.60938 22.6136 0.52983 22.6136ZM15.5298 44.2614C13.848 44.2614 12.3878 44.1023 11.1491 43.7841C9.91051 43.4659 8.88778 42.9489 8.08097 42.233C7.27415 41.517 6.67188 40.5625 6.27415 39.3693C5.88778 38.1875 5.6946 36.7273 5.6946 34.9886V30.0795C5.6946 28.2614 5.31392 26.9545 4.55256 26.1591C3.79119 25.3636 2.45028 24.9659 0.52983 24.9659V22.4261C2.60938 22.4261 4.30256 22.5795 5.60938 22.8864C6.91619 23.1818 7.92188 23.608 8.62642 24.1648C9.33097 24.7102 9.81392 25.358 10.0753 26.108C10.3366 26.8466 10.4673 27.6534 10.4673 28.5284V34.733C10.4673 35.983 10.6094 37.0114 10.8935 37.8182C11.1889 38.6364 11.706 39.2386 12.4446 39.625C13.1832 40.0227 14.2116 40.2216 15.5298 40.2216V44.2614ZM0.52983 24.9659V20.0568H5.25142V24.9659H0.52983ZM33.4659 22.4261V24.9659C31.5455 24.9659 30.2045 25.3636 29.4432 26.1591C28.6818 26.9545 28.3011 28.2614 28.3011 30.0795V34.9886C28.3011 36.7273 28.1023 38.1875 27.7045 39.3693C27.3182 40.5625 26.7216 41.517 25.9148 42.233C25.108 42.9489 24.0852 43.4659 22.8466 43.7841C21.608 44.1023 20.1477 44.2614 18.4659 44.2614V40.2216C19.7841 40.2216 20.8125 40.0227 21.5511 39.625C22.2898 39.2386 22.8011 38.6364 23.0852 37.8182C23.3807 37.0114 23.5284 35.983 23.5284 34.733V28.5284C23.5284 27.6534 23.6591 26.8466 23.9205 26.108C24.1818 25.358 24.6648 24.7102 25.3693 24.1648C26.0739 23.608 27.0795 23.1818 28.3864 22.8864C29.6932 22.5795 31.3864 22.4261 33.4659 22.4261ZM18.4659 0.778408C20.1477 0.778408 21.608 0.937499 22.8466 1.25568C24.0852 1.57386 25.108 2.09091 25.9148 2.80682C26.7216 3.52273 27.3182 4.47727 27.7045 5.67045C28.1023 6.85227 28.3011 8.3125 28.3011 10.0511V14.9432C28.3011 16.7727 28.6818 18.0852 29.4432 18.8807C30.2045 19.6648 31.5455 20.0568 33.4659 20.0568V22.6136C31.3864 22.6136 29.6932 22.4602 28.3864 22.1534C27.0795 21.8466 26.0739 21.4205 25.3693 20.875C24.6648 20.3295 24.1818 19.6875 23.9205 18.9489C23.6591 18.1989 23.5284 17.3864 23.5284 16.5114V10.3068C23.5284 9.04545 23.3807 8.01136 23.0852 7.20455C22.8011 6.38636 22.2898 5.78409 21.5511 5.39773C20.8125 5.01136 19.7841 4.81818 18.4659 4.81818V0.778408ZM33.4659 20.0568V24.9659H28.7443V20.0568H33.4659Z" fill="#00AAF5"/>
</svg>
